<svg width="159" height="48" viewBox="0 0 159 48" fill="none" xmlns="http://www.w3.org/2000/svg">
<path d="M22.12 25.336C21.4293 25.336 20.8693 25.0933 20.44 24.608C20.0107 24.104 19.796 23.432 19.796 22.592C19.796 21.7333 20.1787 19.6147 20.944 16.236C21.728 12.8573 22.12 10.7013 22.12 9.768C22.12 8.83467 21.756 8.368 21.028 8.368C20.02 8.368 18.9093 8.816 17.696 9.712C17.5653 10.72 17.1827 12.484 16.548 15.004C15.9133 17.5053 15.484 19.3627 15.26 20.576C15.0547 21.7707 14.952 22.6947 14.952 23.348C14.952 24.0013 14.9613 24.4027 14.98 24.552C14.252 24.9253 12.9547 25.112 11.088 25.112H10.556C10.556 23.544 10.9947 20.8747 11.872 17.104C12.768 13.2587 13.216 10.8413 13.216 9.852C13.216 8.86267 12.8707 8.368 12.18 8.368C11.172 8.368 9.996 8.85333 8.652 9.824C8.44667 10.8507 8.064 12.5213 7.504 14.836C6.25333 20.1373 5.628 23.376 5.628 24.552C4.9 24.9253 3.612 25.112 1.764 25.112H1.232C1.30667 24.272 1.80133 21.808 2.716 17.72C3.63067 13.6133 4.2 10.5427 4.424 8.508C4.424 8.20933 4.32133 7.85467 4.116 7.444C3.92933 7.01467 3.73333 6.66933 3.528 6.408L3.248 6.016L3.332 5.596C4.37733 5.27867 6.17867 5.12 8.736 5.12C8.97867 5.568 9.1 6.13733 9.1 6.828C9.1 6.97733 9.06267 7.36933 8.988 8.004C11.1347 6.08133 13.0573 5.12 14.756 5.12C15.5213 5.12 16.1653 5.38133 16.688 5.904C17.2107 6.42667 17.5467 7.108 17.696 7.948C19.9173 6.06267 21.8027 5.12 23.352 5.12C24.3227 5.12 25.1067 5.43733 25.704 6.072C26.3013 6.70667 26.6 7.59333 26.6 8.732C26.6 9.87067 26.1987 12.0453 25.396 15.256C24.612 18.448 24.22 20.6787 24.22 21.948C24.22 22.4893 24.3133 22.76 24.5 22.76C24.668 22.76 25.1253 22.5733 25.872 22.2L26.264 22.032L26.824 23.068C26.0213 23.7587 25.2093 24.3093 24.388 24.72C23.5853 25.1307 22.8293 25.336 22.12 25.336ZM6.384 14.08C6.36533 14.1173 6.356 14.164 6.356 14.22L6.384 14.08ZM31.8003 28.024C31.1843 28.3973 30.8763 28.7613 30.8763 29.116C30.8763 29.4707 31.0723 29.648 31.4643 29.648C31.875 29.648 32.3323 29.452 32.8363 29.06C33.3403 28.6867 33.7603 28.0707 34.0963 27.212C33.2003 27.38 32.435 27.6507 31.8003 28.024ZM30.4563 25.112C28.8883 25.112 28.1043 24.2533 28.1043 22.536C28.1043 22.1253 28.291 20.94 28.6643 18.98C29.0377 17.02 29.2243 15.3867 29.2243 14.08C29.2243 13.8 29.187 13.5387 29.1123 13.296C30.1203 12.904 31.5017 12.708 33.2563 12.708C33.3497 12.9693 33.3963 13.4173 33.3963 14.052C33.3963 14.6867 33.191 16.0027 32.7803 18C32.3697 19.9973 32.1643 21.2853 32.1643 21.864C32.1643 22.4427 32.407 22.732 32.8923 22.732C33.471 22.732 34.171 22.4427 34.9923 21.864C35.0857 20.7627 35.459 17.86 36.1123 13.156C36.7657 12.8947 37.9417 12.764 39.6403 12.764H40.1723C39.8177 14.164 39.4723 16.18 39.1363 18.812C38.8003 21.444 38.5297 23.2733 38.3243 24.3C37.9323 26.3533 37.2043 28.024 36.1403 29.312C35.095 30.6187 33.723 31.272 32.0243 31.272C31.3523 31.272 30.7363 31.0947 30.1763 30.74C29.635 30.3853 29.3643 29.928 29.3643 29.368C29.3643 28.6213 29.8217 27.94 30.7363 27.324C31.651 26.708 32.883 26.232 34.4323 25.896C34.6003 25.0747 34.731 24.2813 34.8243 23.516C33.3123 24.58 31.8563 25.112 30.4563 25.112ZM54.1507 25.336C53.068 25.336 51.948 25.1587 50.7907 24.804C49.82 25.0467 48.9707 25.168 48.2427 25.168C47.5334 25.168 47.048 25.1493 46.7867 25.112C46.9174 24.0107 47.4774 21.22 48.4667 16.74C49.4747 12.2413 49.9787 9.69333 49.9787 9.096C49.9787 8.48 49.848 7.948 49.5867 7.5C49.344 7.052 49.1014 6.72533 48.8587 6.52L48.4667 6.212L48.5507 5.792C49.036 5.66133 50.0254 5.52133 51.5187 5.372C53.0307 5.204 54.3467 5.12 55.4667 5.12C58.0614 5.12 60.0214 5.69867 61.3467 6.856C62.6907 7.99467 63.3627 9.852 63.3627 12.428C63.3627 14.5373 63.008 16.5627 62.2987 18.504C61.608 20.4267 60.544 22.0507 59.1067 23.376C57.6694 24.6827 56.0174 25.336 54.1507 25.336ZM56.1387 6.884C55.6534 6.884 55.1027 6.94 54.4867 7.052C54.3 9.03067 53.768 11.924 52.8907 15.732C52.032 19.5213 51.528 21.9387 51.3787 22.984C51.8267 23.208 52.4427 23.32 53.2267 23.32C54.0107 23.32 54.748 23.012 55.4387 22.396C56.148 21.7613 56.7174 20.9773 57.1467 20.044C57.576 19.1107 57.9494 18.0653 58.2667 16.908C58.808 14.836 59.0787 12.9507 59.0787 11.252C59.0787 9.55333 58.8547 8.40533 58.4067 7.808C57.9587 7.192 57.2027 6.884 56.1387 6.884ZM72.6762 13.408C72.7135 13.3707 72.8162 13.128 72.9842 12.68C73.8615 12.68 75.0375 12.9413 76.5122 13.464C76.0455 15.0133 75.6722 16.6373 75.3922 18.336C75.1122 20.016 74.9722 21.22 74.9722 21.948C74.9722 22.6573 75.0469 23.012 75.1962 23.012C75.3082 23.012 75.7189 22.8347 76.4282 22.48L76.7642 22.312L77.2682 23.292C77.1002 23.4413 76.8762 23.628 76.5962 23.852C76.3349 24.076 75.8309 24.384 75.0842 24.776C74.3375 25.1493 73.6655 25.336 73.0682 25.336C71.9109 25.336 71.2389 24.8133 71.0522 23.768C69.8575 24.8133 68.7749 25.336 67.8042 25.336C66.8522 25.336 66.0402 24.9627 65.3682 24.216C64.7149 23.4693 64.3882 22.2933 64.3882 20.688C64.3882 18.1867 64.9015 16.2173 65.9282 14.78C66.9549 13.324 68.1962 12.596 69.6522 12.596C70.6975 12.596 71.7055 12.8667 72.6762 13.408ZM69.4842 22.956C69.9322 22.956 70.4362 22.7787 70.9962 22.424C71.1269 19.792 71.5655 17.188 72.3122 14.612C71.7522 14.3693 71.2762 14.248 70.8842 14.248C70.2122 14.248 69.6335 14.9107 69.1482 16.236C68.6815 17.5427 68.4482 18.9893 68.4482 20.576C68.4482 22.1627 68.7935 22.956 69.4842 22.956ZM83.5813 14.332C83.5813 15.116 83.3293 16.4693 82.8253 18.392C82.3213 20.296 82.0693 21.5467 82.0693 22.144C82.0693 22.7227 82.1533 23.012 82.3213 23.012C82.4333 23.012 82.8626 22.8347 83.6093 22.48L83.9453 22.312L84.4213 23.292C84.2533 23.4413 84.0293 23.628 83.7493 23.852C83.4693 24.076 82.9466 24.384 82.1813 24.776C81.416 25.1493 80.7066 25.336 80.0533 25.336C79.4 25.336 78.8866 25.14 78.5133 24.748C78.14 24.3373 77.9533 23.796 77.9533 23.124C77.9533 22.4333 78.1866 21.22 78.6533 19.484C79.12 17.7293 79.3533 16.5907 79.3533 16.068C79.3533 15.284 79.1106 14.5467 78.6253 13.856L78.3733 13.52L78.4013 13.156C79.3906 12.876 80.996 12.736 83.2173 12.736C83.46 13.016 83.5813 13.548 83.5813 14.332ZM80.3893 9.684C80.016 9.31067 79.8293 8.816 79.8293 8.2C79.8293 7.584 80.0813 7.04267 80.5853 6.576C81.108 6.10933 81.7053 5.876 82.3773 5.876C83.0493 5.876 83.572 6.06267 83.9453 6.436C84.3186 6.80933 84.5053 7.304 84.5053 7.92C84.5053 8.51733 84.2346 9.04933 83.6933 9.516C83.1706 9.98267 82.5826 10.216 81.9293 10.216C81.276 10.216 80.7626 10.0387 80.3893 9.684ZM87.5702 25.336C86.9356 25.336 86.4036 25.1213 85.9742 24.692C85.5636 24.2627 85.3582 23.6653 85.3582 22.9C85.3582 22.116 85.8156 19.6427 86.7302 15.48C87.6636 11.2987 88.1302 8.284 88.1302 6.436L87.9622 5.204C89.4182 4.7 90.7809 4.448 92.0502 4.448C92.2369 4.70933 92.3302 5.16667 92.3302 5.82C92.3302 7.31333 91.8542 10.2067 90.9022 14.5C89.9689 18.7747 89.5022 21.2667 89.5022 21.976C89.5022 22.6667 89.5862 23.012 89.7542 23.012L91.7142 22.312L92.2182 23.292C91.5836 23.796 90.8089 24.2627 89.8942 24.692C88.9982 25.1213 88.2236 25.336 87.5702 25.336ZM96.6597 28.024C96.0437 28.3973 95.7357 28.7613 95.7357 29.116C95.7357 29.4707 95.9317 29.648 96.3237 29.648C96.7344 29.648 97.1917 29.452 97.6957 29.06C98.1997 28.6867 98.6197 28.0707 98.9557 27.212C98.0597 27.38 97.2944 27.6507 96.6597 28.024ZM95.3157 25.112C93.7477 25.112 92.9637 24.2533 92.9637 22.536C92.9637 22.1253 93.1504 20.94 93.5237 18.98C93.8971 17.02 94.0837 15.3867 94.0837 14.08C94.0837 13.8 94.0464 13.5387 93.9717 13.296C94.9797 12.904 96.3611 12.708 98.1157 12.708C98.2091 12.9693 98.2557 13.4173 98.2557 14.052C98.2557 14.6867 98.0504 16.0027 97.6397 18C97.2291 19.9973 97.0237 21.2853 97.0237 21.864C97.0237 22.4427 97.2664 22.732 97.7517 22.732C98.3304 22.732 99.0304 22.4427 99.8517 21.864C99.9451 20.7627 100.318 17.86 100.972 13.156C101.625 12.8947 102.801 12.764 104.5 12.764H105.032C104.677 14.164 104.332 16.18 103.996 18.812C103.66 21.444 103.389 23.2733 103.184 24.3C102.792 26.3533 102.064 28.024 101 29.312C99.9544 30.6187 98.5824 31.272 96.8837 31.272C96.2117 31.272 95.5957 31.0947 95.0357 30.74C94.4944 30.3853 94.2237 29.928 94.2237 29.368C94.2237 28.6213 94.6811 27.94 95.5957 27.324C96.5104 26.708 97.7424 26.232 99.2917 25.896C99.4597 25.0747 99.5904 24.2813 99.6837 23.516C98.1717 24.58 96.7157 25.112 95.3157 25.112Z" fill="#4169E1"/>
<path d="M113.12 33.244C112.616 33.244 112.233 33.2347 111.972 33.216C111.169 36.7253 110.721 39.1613 110.628 40.524C109.825 40.916 108.603 41.112 106.96 41.112C106.605 41.112 106.363 41.1027 106.232 41.084C106.363 39.9827 106.923 37.22 107.912 32.796C108.901 28.3533 109.396 25.5533 109.396 24.396C109.396 24.172 109.265 23.8827 109.004 23.528C108.761 23.1547 108.509 22.8467 108.248 22.604L107.884 22.24L107.968 21.82C111.104 21.3533 113.643 21.12 115.584 21.12C119.429 21.12 121.352 22.688 121.352 25.824C121.352 27.9147 120.661 29.6787 119.28 31.116C117.899 32.5347 115.845 33.244 113.12 33.244ZM112.672 31.368C114.109 31.368 115.192 30.8267 115.92 29.744C116.667 28.6613 117.04 27.2147 117.04 25.404C117.04 24.6573 116.9 24.0507 116.62 23.584C116.34 23.0987 115.929 22.856 115.388 22.856C115.033 22.856 114.595 22.9213 114.072 23.052C113.773 25.012 113.213 27.784 112.392 31.368H112.672ZM124.143 41.336C122.855 41.336 121.847 40.888 121.119 39.992C120.391 39.0773 120.027 37.808 120.027 36.184C120.027 34.112 120.577 32.3293 121.679 30.836C122.799 29.3427 124.339 28.596 126.299 28.596L127.307 28.652C127.624 28.484 127.979 28.4 128.371 28.4C129.845 28.4 130.583 29.7907 130.583 32.572C131.348 32.5347 132.123 32.432 132.907 32.264L133.355 32.152L133.523 33.244C132.907 33.5053 132.076 33.7387 131.031 33.944L130.471 34.056C130.116 36.016 129.397 37.724 128.315 39.18C127.232 40.6173 125.841 41.336 124.143 41.336ZM125.655 38.928C126.439 38.928 127.139 38.424 127.755 37.416C128.389 36.408 128.828 35.344 129.071 34.224C127.073 34.224 126.075 33.4773 126.075 31.984C126.075 31.3867 126.196 30.8267 126.439 30.304L126.579 30.024C126.504 29.9867 126.411 29.968 126.299 29.968C126.187 29.968 126.103 29.9867 126.047 30.024C125.58 30.3227 125.141 31.0227 124.731 32.124C124.32 33.2253 124.115 34.4853 124.115 35.904C124.115 37.92 124.628 38.928 125.655 38.928ZM140.195 37.332C140.195 38.508 139.672 39.4693 138.627 40.216C137.6 40.9627 136.424 41.336 135.099 41.336C133.774 41.336 132.719 41.056 131.935 40.496C131.17 39.936 130.787 39.4413 130.787 39.012C130.787 38.7507 131.114 38.3307 131.767 37.752C132.42 37.1547 132.971 36.7907 133.419 36.66C134.352 37.3507 135.118 38.4427 135.715 39.936C136.406 39.88 136.751 39.5533 136.751 38.956C136.751 38.0973 135.995 36.884 134.483 35.316C132.971 33.7293 132.215 32.4693 132.215 31.536C132.215 30.6027 132.635 29.884 133.475 29.38C134.315 28.8573 135.323 28.596 136.499 28.596C137.694 28.596 138.59 28.8107 139.187 29.24C139.784 29.6507 140.083 30.22 140.083 30.948C140.083 31.6573 139.514 32.6467 138.375 33.916C138.506 34.0467 138.674 34.224 138.879 34.448C139.084 34.6533 139.355 35.0547 139.691 35.652C140.027 36.2493 140.195 36.8093 140.195 37.332ZM137.507 32.936C138.291 32.264 138.683 31.6013 138.683 30.948C138.683 30.2947 138.235 29.968 137.339 29.968C136.91 29.968 136.555 30.0613 136.275 30.248C135.995 30.416 135.855 30.612 135.855 30.836C135.855 31.2467 136.266 31.8253 137.087 32.572L137.507 32.936ZM150.26 28.932C150.223 29.3987 150.064 29.94 149.784 30.556C149.075 30.4813 148.403 30.444 147.768 30.444H147.264C146.406 34.6067 145.976 37.2013 145.976 38.228C145.976 38.7693 146.088 39.04 146.312 39.04C146.555 39.04 147.18 38.8067 148.188 38.34L148.692 39.264C147.031 40.6453 145.491 41.336 144.072 41.336C143.419 41.336 142.878 41.1307 142.448 40.72C142.038 40.3093 141.832 39.768 141.832 39.096C141.832 38.4053 141.907 37.6307 142.056 36.772C142.224 35.9133 142.448 34.868 142.728 33.636C143.008 32.3853 143.214 31.3773 143.344 30.612C142.654 30.668 142.14 30.724 141.804 30.78C141.767 30.556 141.748 30.2573 141.748 29.884C141.748 29.492 141.776 29.1747 141.832 28.932H143.596C143.746 27.924 143.82 26.972 143.82 26.076L143.792 25.208V25.124C145.248 24.62 146.62 24.368 147.908 24.368C147.983 24.7413 148.02 25.208 148.02 25.768C148.02 26.328 147.862 27.3827 147.544 28.932H150.26ZM158.406 37.332C158.406 38.508 157.883 39.4693 156.838 40.216C155.811 40.9627 154.635 41.336 153.31 41.336C151.985 41.336 150.93 41.056 150.146 40.496C149.381 39.936 148.998 39.4413 148.998 39.012C148.998 38.7507 149.325 38.3307 149.978 37.752C150.631 37.1547 151.182 36.7907 151.63 36.66C152.563 37.3507 153.329 38.4427 153.926 39.936C154.617 39.88 154.962 39.5533 154.962 38.956C154.962 38.0973 154.206 36.884 152.694 35.316C151.182 33.7293 150.426 32.4693 150.426 31.536C150.426 30.6027 150.846 29.884 151.686 29.38C152.526 28.8573 153.534 28.596 154.71 28.596C155.905 28.596 156.801 28.8107 157.398 29.24C157.995 29.6507 158.294 30.22 158.294 30.948C158.294 31.6573 157.725 32.6467 156.586 33.916C156.717 34.0467 156.885 34.224 157.09 34.448C157.295 34.6533 157.566 35.0547 157.902 35.652C158.238 36.2493 158.406 36.8093 158.406 37.332ZM155.718 32.936C156.502 32.264 156.894 31.6013 156.894 30.948C156.894 30.2947 156.446 29.968 155.55 29.968C155.121 29.968 154.766 30.0613 154.486 30.248C154.206 30.416 154.066 30.612 154.066 30.836C154.066 31.2467 154.477 31.8253 155.298 32.572L155.718 32.936Z" fill="#DD3535"/>
<ellipse cx="52" cy="37" rx="45" ry="2" fill="#4169E1"/>
</svg>
